<?xml version="1.0" encoding="utf-8"?>
<!-- Generator: Adobe Illustrator 17.1.0, SVG Export Plug-In . SVG Version: 6.00 Build 0)  -->
<!DOCTYPE svg PUBLIC "-//W3C//DTD SVG 1.1//EN" "http://www.w3.org/Graphics/SVG/1.1/DTD/svg11.dtd">
<svg version="1.1" id="Слой_1" xmlns="http://www.w3.org/2000/svg" xmlns:xlink="http://www.w3.org/1999/xlink" x="0px" y="0px"
	 viewBox="0 0 290 290" enable-background="new 0 0 290 290" xml:space="preserve">
<sodipodi:namedview  borderopacity="1.0" id="base" inkscape:cy="50.181142" bordercolor="#666666" fit-margin-top="0" fit-margin-left="0" showgrid="false" inkscape:zoom="3.7200571" inkscape:cx="101.29413" pagecolor="#ffffff" fit-margin-bottom="0" fit-margin-right="0" inkscape:window-width="1280" inkscape:window-maximized="1" inkscape:pageshadow="2" inkscape:pageopacity="0.0" inkscape:current-layer="layer1" inkscape:window-x="-8" inkscape:document-units="px" inkscape:window-height="962" inkscape:window-y="-8">
	</sodipodi:namedview>
<g id="layer1" transform="translate(-282.32053,-396.30734)" inkscape:label="Layer 1" inkscape:groupmode="layer">
	<path id="path5" inkscape:connector-curvature="0" fill="#FFFFFF" d="M573.1,461.2c-10.7,4.4-22.3,7.3-34.3,8.7
		c12.3-6.8,21.8-17.6,26.3-30.5c-11.6,6.3-24.4,10.9-38,13.4c-10.9-10.7-26.5-17.4-43.7-17.4c-33,0-59.8,24.7-59.8,55.1
		c0,4.3,0.5,8.5,1.5,12.6c-49.7-2.3-93.8-24.2-123.3-57.6c-5.1,8.1-8.1,17.6-8.1,27.7c0,19.1,10.6,36,26.6,45.9
		c-9.8-0.3-19-2.8-27.1-6.9c0,0.2,0,0.5,0,0.7c0,26.7,20.6,49,48,54.1c-5,1.3-10.3,1.9-15.8,1.9c-3.9,0-7.6-0.3-11.3-1
		c7.6,21.9,29.7,37.8,55.9,38.3c-20.5,14.8-46.3,23.6-74.3,23.6c-4.8,0-9.6-0.3-14.3-0.8c26.5,15.6,57.9,24.8,91.7,24.8
		c110,0,170.2-84,170.2-156.9c0-2.4-0.1-4.8-0.2-7.1C554.9,482,565.1,472.3,573.1,461.2L573.1,461.2z"/>
</g>
</svg>
