<?xml version="1.0" encoding="UTF-8"?>
<!DOCTYPE svg PUBLIC "-//W3C//DTD SVG 1.1//EN" "http://www.w3.org/Graphics/SVG/1.1/DTD/svg11.dtd">
<!-- Creator: CorelDRAW X7 -->
<svg xmlns="http://www.w3.org/2000/svg" xml:space="preserve" width="210mm" height="297mm" version="1.1" style="shape-rendering:geometricPrecision; text-rendering:geometricPrecision; image-rendering:optimizeQuality; fill-rule:evenodd; clip-rule:evenodd"
viewBox="0 0 21000 29700"
 xmlns:xlink="http://www.w3.org/1999/xlink"
 enable-background="new 0 0 290 290">
 <defs>
  <style type="text/css">
   <![CDATA[
    .fil0 {fill:white}
   ]]>
  </style>
 </defs>
 <g id="Слой_x0020_1">
  <metadata id="CorelCorpID_0Corel-Layer"/>
  <path class="fil0" d="M10391 20665l1231 0c0,0 370,-44 558,-246 174,-189 167,-543 167,-543 0,0 -22,-1652 738,-1890 753,-239 1724,1593 2752,2295 775,536 1369,420 1369,420l2744 -36c0,0 1434,-87 753,-1217 -58,-94 -398,-832 -2042,-2360 -1723,-1601 -1492,-1340 587,-4106 1260,-1688 1766,-2709 1607,-3150 -152,-420 -1079,-312 -1079,-312l-3092 22c0,0 -232,-29 -398,72 -167,102 -275,334 -275,334 0,0 -493,1303 -1144,2411 -1376,2339 -1927,2462 -2151,2317 -522,-340 -391,-1361 -391,-2085 0,-2267 340,-3208 -666,-3454 -333,-80 -587,-138 -1441,-145 -1101,-15 -2035,0 -2564,260 -355,174 -623,558 -456,580 203,29 666,123 912,456 319,434 304,1398 304,1398 0,0 181,2664 -427,2997 -420,225 -992,-239 -2216,-2360 -630,-1086 -1100,-2289 -1100,-2289 0,0 -94,-224 -254,-347 -195,-145 -478,-188 -478,-188l-2940 21c0,0 -441,15 -601,203 -145,174 -14,521 -14,521 0,0 2295,5388 4902,8096 2390,2491 5105,2325 5105,2325l0 0z"/>
 </g>
</svg>
